<svg width="110" height="110" viewBox="0 0 110 110" fill="none" xmlns="http://www.w3.org/2000/svg">
<rect x="0.5" y="0.5" width="109" height="109" fill="#312E38" stroke="black"/>
<path d="M48.75 60.5C54.2038 60.5 58.625 56.6944 58.625 52C58.625 47.3056 54.2038 43.5 48.75 43.5C43.2962 43.5 38.875 47.3056 38.875 52C38.875 56.6944 43.2962 60.5 48.75 60.5Z" stroke="#FF9900" stroke-width="2" stroke-linecap="round" stroke-linejoin="round"/>
<path d="M48.75 94.5C54.2038 94.5 58.625 90.6944 58.625 86C58.625 81.3056 54.2038 77.5 48.75 77.5C43.2962 77.5 38.875 81.3056 38.875 86C38.875 90.6944 43.2962 94.5 48.75 94.5Z" stroke="#FF9900" stroke-width="2" stroke-linecap="round" stroke-linejoin="round"/>
<path d="M94.8334 46.3333L55.7284 79.9933" stroke="#FF9900" stroke-width="2" stroke-linecap="round" stroke-linejoin="round"/>
<path d="M76.6305 76.0267L94.8334 91.6667" stroke="#FF9900" stroke-width="2" stroke-linecap="round" stroke-linejoin="round"/>
<path d="M55.7284 58.0067L68.5001 69" stroke="#FF9900" stroke-width="2" stroke-linecap="round" stroke-linejoin="round"/>
</svg>
